<svg width="1871" height="1053" viewBox="0 0 1871 1053" fill="none" xmlns="http://www.w3.org/2000/svg">
<g clip-path="url(#clip0_2234_8802)">
<g opacity="0.2" clip-path="url(#clip1_2234_8802)">
<path d="M40.0975 889C-38.4557 889 -102 952.544 -102 1031.1C-102 1109.46 -38.4557 1173.19 40.0975 1173.19C118.456 1173.19 182.195 1109.65 182.195 1031.1C182 952.544 118.456 889 40.0975 889ZM40.0975 1164.03C-33.3878 1164.03 -92.8387 1104.58 -92.8387 1031.1C-92.8387 957.612 -33.3878 898.161 40.0975 898.161C113.583 898.161 173.034 957.612 173.034 1031.1C173.034 1104.39 113.388 1164.03 40.0975 1164.03Z" fill="white"/>
<path d="M40.0988 919.603C-21.3014 919.603 -71.2012 969.502 -71.2012 1030.9C-71.2012 1092.3 -21.3014 1142.2 40.0988 1142.2C101.499 1142.2 151.399 1092.5 151.399 1031.1C151.399 969.502 101.499 919.603 40.0988 919.603ZM40.0988 1125.24C-11.9452 1125.24 -54.243 1082.95 -54.243 1030.9C-54.243 978.859 -11.9452 936.561 40.0988 936.561C92.1427 936.561 134.441 978.859 134.441 1030.9C134.441 1082.95 92.1427 1125.24 40.0988 1125.24Z" fill="white"/>
<path d="M40.098 968.527C5.59696 968.527 -22.4717 996.596 -22.4717 1031.1C-22.4717 1065.6 5.40204 1093.67 40.098 1093.67C74.599 1093.67 102.668 1065.6 102.668 1031.1C102.473 996.596 74.599 968.527 40.098 968.527ZM40.098 1064.62C21.5805 1064.62 6.57157 1049.61 6.57157 1031.1C6.57157 1012.58 21.5805 997.571 40.098 997.571C58.6155 997.571 73.6244 1012.58 73.6244 1031.1C73.6244 1049.61 58.6155 1064.62 40.098 1064.62Z" fill="white"/>
</g>
<g opacity="0.8" clip-path="url(#clip2_2234_8802)">
<path d="M1778.34 782.264C1778.34 783.784 1777.19 784.923 1775.67 784.923C1774.14 784.923 1773 783.784 1773 782.264C1773 780.745 1774.14 779.605 1775.67 779.605C1777.19 779.605 1778.34 780.872 1778.34 782.264Z" fill="white"/>
<path d="M1801.08 782.264C1801.08 783.784 1799.93 784.923 1798.41 784.923C1796.88 784.923 1795.74 783.784 1795.74 782.264C1795.74 780.745 1796.88 779.605 1798.41 779.605C1799.8 779.605 1801.08 780.872 1801.08 782.264Z" fill="white"/>
<path d="M1823.69 782.264C1823.69 783.784 1822.54 784.923 1821.02 784.923C1819.5 784.923 1818.35 783.784 1818.35 782.264C1818.35 780.745 1819.5 779.605 1821.02 779.605C1822.54 779.605 1823.69 780.872 1823.69 782.264Z" fill="white"/>
<path d="M1846.43 782.264C1846.43 783.784 1845.28 784.923 1843.76 784.923C1842.24 784.923 1841.09 783.784 1841.09 782.264C1841.09 780.745 1842.24 779.605 1843.76 779.605C1845.28 779.605 1846.43 780.872 1846.43 782.264Z" fill="white"/>
<path d="M1869.17 782.264C1869.17 783.784 1868.02 784.923 1866.5 784.923C1864.98 784.923 1863.83 783.784 1863.83 782.264C1863.83 780.745 1864.98 779.605 1866.5 779.605C1867.9 779.605 1869.17 780.872 1869.17 782.264Z" fill="white"/>
<path d="M1778.34 801.131C1778.34 802.65 1777.19 803.79 1775.67 803.79C1774.14 803.79 1773 802.65 1773 801.131C1773 799.611 1774.14 798.472 1775.67 798.472C1777.19 798.472 1778.34 799.611 1778.34 801.131Z" fill="white"/>
<path d="M1801.08 801.131C1801.08 802.65 1799.93 803.79 1798.41 803.79C1796.88 803.79 1795.74 802.65 1795.74 801.131C1795.74 799.611 1796.88 798.472 1798.41 798.472C1799.8 798.472 1801.08 799.611 1801.08 801.131Z" fill="white"/>
<path d="M1823.69 801.131C1823.69 802.65 1822.54 803.79 1821.02 803.79C1819.5 803.79 1818.35 802.65 1818.35 801.131C1818.35 799.611 1819.5 798.472 1821.02 798.472C1822.54 798.472 1823.69 799.611 1823.69 801.131Z" fill="white"/>
<path d="M1846.43 801.131C1846.43 802.65 1845.28 803.79 1843.76 803.79C1842.24 803.79 1841.09 802.65 1841.09 801.131C1841.09 799.611 1842.24 798.472 1843.76 798.472C1845.28 798.472 1846.43 799.611 1846.43 801.131Z" fill="white"/>
<path d="M1869.17 801.131C1869.17 802.65 1868.02 803.79 1866.5 803.79C1864.98 803.79 1863.83 802.65 1863.83 801.131C1863.83 799.611 1864.98 798.472 1866.5 798.472C1867.9 798.472 1869.17 799.611 1869.17 801.131Z" fill="white"/>
<path d="M1778.34 744.659C1778.34 746.178 1777.19 747.318 1775.67 747.318C1774.14 747.318 1773 746.178 1773 744.659C1773 743.14 1774.14 742 1775.67 742C1777.19 742 1778.34 743.14 1778.34 744.659Z" fill="white"/>
<path d="M1801.08 744.659C1801.08 746.178 1799.93 747.318 1798.41 747.318C1796.88 747.318 1795.74 746.178 1795.74 744.659C1795.74 743.14 1796.88 742 1798.41 742C1799.8 742 1801.08 743.14 1801.08 744.659Z" fill="white"/>
<path d="M1823.69 744.659C1823.69 746.178 1822.54 747.318 1821.02 747.318C1819.5 747.318 1818.35 746.178 1818.35 744.659C1818.35 743.14 1819.62 742 1821.02 742C1822.54 742 1823.69 743.14 1823.69 744.659Z" fill="white"/>
<path d="M1846.43 744.659C1846.43 746.178 1845.28 747.318 1843.76 747.318C1842.24 747.318 1841.09 746.178 1841.09 744.659C1841.09 743.14 1842.36 742 1843.76 742C1845.16 742 1846.43 743.14 1846.43 744.659Z" fill="white"/>
<path d="M1869.17 744.659C1869.17 746.178 1868.02 747.318 1866.5 747.318C1864.98 747.318 1863.83 746.178 1863.83 744.659C1863.83 743.14 1864.98 742 1866.5 742C1867.9 742 1869.17 743.14 1869.17 744.659Z" fill="white"/>
<path d="M1778.34 763.525C1778.34 765.045 1777.19 766.184 1775.67 766.184C1774.14 766.184 1773 764.918 1773 763.525C1773 762.006 1774.14 760.866 1775.67 760.866C1777.19 760.866 1778.34 762.006 1778.34 763.525Z" fill="white"/>
<path d="M1801.08 763.525C1801.08 765.045 1799.93 766.184 1798.41 766.184C1796.88 766.184 1795.74 765.045 1795.74 763.525C1795.74 762.006 1796.88 760.866 1798.41 760.866C1799.8 760.866 1801.08 762.006 1801.08 763.525Z" fill="white"/>
<path d="M1823.69 763.525C1823.69 765.045 1822.54 766.184 1821.02 766.184C1819.5 766.184 1818.35 765.045 1818.35 763.525C1818.35 762.006 1819.5 760.866 1821.02 760.866C1822.54 760.866 1823.69 762.006 1823.69 763.525Z" fill="white"/>
<path d="M1846.43 763.525C1846.43 765.045 1845.28 766.184 1843.76 766.184C1842.24 766.184 1841.09 765.045 1841.09 763.525C1841.09 762.006 1842.24 760.866 1843.76 760.866C1845.28 760.866 1846.43 762.006 1846.43 763.525Z" fill="white"/>
<path d="M1869.17 763.525C1869.17 765.045 1868.02 766.184 1866.5 766.184C1864.98 766.184 1863.83 765.045 1863.83 763.525C1863.83 762.006 1864.98 760.866 1866.5 760.866C1867.9 760.866 1869.17 762.006 1869.17 763.525Z" fill="white"/>
<path d="M1778.34 819.87C1778.34 821.389 1777.19 822.529 1775.67 822.529C1774.14 822.529 1773 821.389 1773 819.87C1773 818.35 1774.14 817.211 1775.67 817.211C1777.19 817.211 1778.34 818.477 1778.34 819.87Z" fill="white"/>
<path d="M1801.08 819.87C1801.08 821.389 1799.93 822.529 1798.41 822.529C1796.88 822.529 1795.74 821.389 1795.74 819.87C1795.74 818.35 1796.88 817.211 1798.41 817.211C1799.8 817.211 1801.08 818.477 1801.08 819.87Z" fill="white"/>
<path d="M1823.69 819.87C1823.69 821.389 1822.54 822.529 1821.02 822.529C1819.5 822.529 1818.35 821.389 1818.35 819.87C1818.35 818.35 1819.5 817.211 1821.02 817.211C1822.54 817.211 1823.69 818.477 1823.69 819.87Z" fill="white"/>
<path d="M1846.43 819.87C1846.43 821.389 1845.28 822.529 1843.76 822.529C1842.24 822.529 1841.09 821.389 1841.09 819.87C1841.09 818.35 1842.24 817.211 1843.76 817.211C1845.28 817.211 1846.43 818.477 1846.43 819.87Z" fill="white"/>
<path d="M1869.17 819.87C1869.17 821.389 1868.02 822.529 1866.5 822.529C1864.98 822.529 1863.83 821.389 1863.83 819.87C1863.83 818.35 1864.98 817.211 1866.5 817.211C1867.9 817.211 1869.17 818.477 1869.17 819.87Z" fill="white"/>
<path d="M1778.34 838.736C1778.34 840.256 1777.19 841.395 1775.67 841.395C1774.14 841.395 1773 840.256 1773 838.736C1773 837.217 1774.14 836.077 1775.67 836.077C1777.19 836.077 1778.34 837.217 1778.34 838.736Z" fill="white"/>
<path d="M1801.08 838.736C1801.08 840.256 1799.93 841.395 1798.41 841.395C1796.88 841.395 1795.74 840.256 1795.74 838.736C1795.74 837.217 1796.88 836.077 1798.41 836.077C1799.8 836.077 1801.08 837.217 1801.08 838.736Z" fill="white"/>
<path d="M1823.69 838.736C1823.69 840.256 1822.54 841.395 1821.02 841.395C1819.5 841.395 1818.35 840.256 1818.35 838.736C1818.35 837.217 1819.5 836.077 1821.02 836.077C1822.54 836.077 1823.69 837.217 1823.69 838.736Z" fill="white"/>
<path d="M1843.76 841.395C1845.23 841.395 1846.43 840.205 1846.43 838.736C1846.43 837.268 1845.23 836.077 1843.76 836.077C1842.29 836.077 1841.09 837.268 1841.09 838.736C1841.09 840.205 1842.29 841.395 1843.76 841.395Z" fill="white"/>
<path d="M1869.17 838.736C1869.17 840.256 1868.02 841.395 1866.5 841.395C1864.98 841.395 1863.83 840.256 1863.83 838.736C1863.83 837.217 1864.98 836.077 1866.5 836.077C1867.9 836.077 1869.17 837.217 1869.17 838.736Z" fill="white"/>
<path d="M1778.34 857.601C1778.34 859.121 1777.19 860.26 1775.67 860.26C1774.14 860.26 1773 859.121 1773 857.601C1773 856.082 1774.14 854.942 1775.67 854.942C1777.19 854.942 1778.34 856.082 1778.34 857.601Z" fill="white"/>
<path d="M1801.08 857.601C1801.08 859.121 1799.93 860.26 1798.41 860.26C1796.88 860.26 1795.74 859.121 1795.74 857.601C1795.74 856.082 1796.88 854.942 1798.41 854.942C1799.8 854.942 1801.08 856.082 1801.08 857.601Z" fill="white"/>
<path d="M1823.69 857.601C1823.69 859.121 1822.54 860.26 1821.02 860.26C1819.5 860.26 1818.35 859.121 1818.35 857.601C1818.35 856.082 1819.5 854.942 1821.02 854.942C1822.54 854.942 1823.69 856.082 1823.69 857.601Z" fill="white"/>
<path d="M1846.43 857.601C1846.43 859.121 1845.28 860.26 1843.76 860.26C1842.24 860.26 1841.09 859.121 1841.09 857.601C1841.09 856.082 1842.24 854.942 1843.76 854.942C1845.28 854.942 1846.43 856.082 1846.43 857.601Z" fill="white"/>
<path d="M1869.17 857.601C1869.17 859.121 1868.02 860.26 1866.5 860.26C1864.98 860.26 1863.83 859.121 1863.83 857.601C1863.83 856.082 1864.98 854.942 1866.5 854.942C1867.9 854.942 1869.17 856.082 1869.17 857.601Z" fill="white"/>
<path d="M1778.34 876.341C1778.34 877.86 1777.19 879 1775.67 879C1774.14 879 1773 877.86 1773 876.341C1773 874.821 1774.14 873.682 1775.67 873.682C1777.19 873.682 1778.34 874.948 1778.34 876.341Z" fill="white"/>
<path d="M1801.08 876.341C1801.08 877.86 1799.93 879 1798.41 879C1796.88 879 1795.74 877.86 1795.74 876.341C1795.74 874.821 1796.88 873.682 1798.41 873.682C1799.8 873.682 1801.08 874.948 1801.08 876.341Z" fill="white"/>
<path d="M1823.69 876.341C1823.69 877.86 1822.54 879 1821.02 879C1819.5 879 1818.35 877.86 1818.35 876.341C1818.35 874.821 1819.5 873.682 1821.02 873.682C1822.54 873.682 1823.69 874.948 1823.69 876.341Z" fill="white"/>
<path d="M1846.43 876.341C1846.43 877.86 1845.28 879 1843.76 879C1842.24 879 1841.09 877.86 1841.09 876.341C1841.09 874.821 1842.24 873.682 1843.76 873.682C1845.28 873.682 1846.43 874.948 1846.43 876.341Z" fill="white"/>
<path d="M1869.17 876.341C1869.17 877.86 1868.02 879 1866.5 879C1864.98 879 1863.83 877.86 1863.83 876.341C1863.83 874.821 1864.98 873.682 1866.5 873.682C1867.9 873.682 1869.17 874.948 1869.17 876.341Z" fill="white"/>
</g>
<g opacity="0.3">
<path d="M1771.81 68.2212L1781.47 77.8799L1755.78 103.563L1730.1 77.8799L1739.68 68.2943L1755.71 84.319L1771.81 68.2212Z" fill="white"/>
<path d="M1771.81 33.5386L1781.39 43.1241L1755.71 68.8075L1730.1 43.1973L1739.76 33.5386L1755.78 49.5632L1771.81 33.5386Z" fill="white"/>
<path d="M1771.73 -1.21835L1781.39 8.44036L1755.78 34.0506L1730.1 8.36719L1739.68 -1.21835L1755.71 14.8063L1771.73 -1.21835Z" fill="white"/>
</g>
<path opacity="0.3" d="M804 801.553C790.071 815.482 767.377 815.482 753.447 801.553C739.518 787.623 739.518 764.929 753.447 751L804 801.553Z" fill="white"/>
<g opacity="0.3">
<path d="M858.486 522.89C869.205 522.89 877.937 514.165 877.937 503.453C877.937 492.742 869.205 484.017 858.486 484.017L858.486 522.89Z" fill="white"/>
<path d="M828.141 522.89C838.861 522.89 847.592 514.165 847.592 503.453C847.592 492.742 838.861 484.017 828.141 484.017L828.141 522.89Z" fill="white"/>
<path d="M797.796 522.89C808.515 522.89 817.247 514.165 817.247 503.453C817.247 492.742 808.515 484.017 797.796 484.017V522.89Z" fill="white"/>
</g>
<g opacity="0.3">
<path d="M156.301 137.921L156.301 126L188 126L188 157.699L176.169 157.699L176.169 137.921L156.301 137.921Z" fill="white"/>
<path d="M134.898 159.325L134.898 147.494L166.597 147.494L166.597 179.103L154.676 179.103L154.676 159.325L134.898 159.325Z" fill="white"/>
<path d="M113.495 180.819L113.495 168.898L145.103 168.898L145.103 200.597L133.272 200.597L133.272 180.819L113.495 180.819Z" fill="white"/>
<path d="M92.0005 202.222L92.0004 190.301L123.699 190.301L123.699 222L111.778 222L111.778 202.222L92.0005 202.222Z" fill="white"/>
</g>
</g>
<defs>
<clipPath id="clip0_2234_8802">
<rect width="1920" height="1080" fill="white" transform="translate(0 -27)"/>
</clipPath>
<clipPath id="clip1_2234_8802">
<rect width="284" height="284" fill="white" transform="translate(-102 889)"/>
</clipPath>
<clipPath id="clip2_2234_8802">
<rect width="187" height="137" fill="white" transform="translate(1773 742)"/>
</clipPath>
</defs>
</svg>
